<svg xmlns="http://www.w3.org/2000/svg" viewBox="0 0 1200 800" role="img" aria-labelledby="title desc">
  <title id="title">Primetime Fastpitch</title>
  <desc id="desc">Black and gold Primetime Fastpitch logo with a star and softball.</desc>
  <defs>
    <linearGradient id="gold" x1="0" y1="0" x2="1" y2="1">
      <stop offset="0" stop-color="#fff7bf"/>
      <stop offset="0.28" stop-color="#ffd84f"/>
      <stop offset="0.62" stop-color="#d79b11"/>
      <stop offset="1" stop-color="#fff1a0"/>
    </linearGradient>
    <linearGradient id="ball" x1="0" y1="0" x2="1" y2="1">
      <stop offset="0" stop-color="#fff56a"/>
      <stop offset="0.55" stop-color="#f6c51d"/>
      <stop offset="1" stop-color="#c78300"/>
    </linearGradient>
    <filter id="shadow" x="-30%" y="-30%" width="160%" height="160%">
      <feDropShadow dx="0" dy="20" stdDeviation="18" flood-color="#000" flood-opacity="0.7"/>
      <feDropShadow dx="0" dy="0" stdDeviation="12" flood-color="#e9c04b" flood-opacity="0.35"/>
    </filter>
  </defs>
  <g filter="url(#shadow)">
    <circle cx="750" cy="210" r="145" fill="url(#ball)" stroke="#111" stroke-width="18"/>
    <path d="M690 82c35 35 45 78 35 125s-3 91 31 132M809 78c-31 37-39 82-25 128s9 91-22 133" fill="none" stroke="#b51118" stroke-width="13" stroke-linecap="round"/>
    <path d="M684 108l38 17m-46 20l42 18m-47 21l42 18m-45 22l41 17m103-130l-38 18m46 20l-42 18m46 21l-42 18m45 21l-40 18" fill="none" stroke="#b51118" stroke-width="9" stroke-linecap="round"/>
    <path d="M298 92l128 216 244-55-151 194 135 226-244-85-169 183 11-250L22 421l251-67z" fill="#0b0b0b" stroke="#050505" stroke-width="34" stroke-linejoin="round"/>
    <path d="M298 92l128 216 244-55-151 194 135 226-244-85-169 183 11-250L22 421l251-67z" fill="none" stroke="url(#gold)" stroke-width="17" stroke-linejoin="round"/>
    <path d="M0 490L236 328l850-82-143 135 247-12-175 120 147 15-198 139-774 44z" fill="#080808" stroke="#000" stroke-width="26" stroke-linejoin="round"/>
    <text x="566" y="510" text-anchor="middle" transform="skewX(-12)" font-family="Anton, Impact, Arial Black, sans-serif" font-size="205" letter-spacing="-4" fill="url(#gold)" stroke="#fff8d6" stroke-width="7" paint-order="stroke">PRIMETIME</text>
    <text x="566" y="510" text-anchor="middle" transform="skewX(-12)" font-family="Anton, Impact, Arial Black, sans-serif" font-size="205" letter-spacing="-4" fill="none" stroke="#050505" stroke-width="20" paint-order="stroke" opacity="0.9">PRIMETIME</text>
    <text x="566" y="510" text-anchor="middle" transform="skewX(-12)" font-family="Anton, Impact, Arial Black, sans-serif" font-size="205" letter-spacing="-4" fill="url(#gold)" stroke="#fff8d6" stroke-width="5" paint-order="stroke">PRIMETIME</text>
    <path d="M323 535h610l-42 118H287z" fill="#090909" stroke="url(#gold)" stroke-width="10"/>
    <text x="610" y="620" text-anchor="middle" font-family="Arial Black, Inter, sans-serif" font-size="69" font-weight="900" letter-spacing="7" fill="#fff">FASTPITCH</text>
  </g>
</svg>
